<mxfile host="app.diagrams.net" agent="Mozilla/5.0 (Windows NT 10.0; Win64; x64) AppleWebKit/537.36 (KHTML, like Gecko) Chrome/134.0.0.0 Safari/537.36" version="26.1.1">
  <diagram name="Page-1" id="gYi0QUBQXitoDw-1xAWT">
    <mxGraphModel dx="880" dy="4660" grid="1" gridSize="10" guides="1" tooltips="1" connect="1" arrows="1" fold="1" page="1" pageScale="1" pageWidth="1000" pageHeight="700" math="0" shadow="0">
      <root>
        <mxCell id="0" />
        <mxCell id="1" parent="0" />
        <mxCell id="oUp0TXOQ7eK1eVYeIp82-3" value="" style="shape=image;verticalLabelPosition=bottom;labelBackgroundColor=default;verticalAlign=top;aspect=fixed;imageAspect=0;image=data:image/png,iVBORw0KGgoAAAANSUhEUgAAAckAAAIUCAYAAABxd9cdAAAAAXNSR0IArs4c6QAAAARnQU1BAACxjwv8YQUAAAAJcEhZcwAADsMAAA7DAcdvqGQAAGt/SURBVHhe7d1tjCPZeh/2fydAPuhT5Gkos1rPZDyq6lm3qSRSstEN6TSEi+jCZAuz9J2AAYzxdNzBFrHInTStTQeLBaGdsYmF4M5KJEbBghQwUI8nBkJ4pN6BmnSujAthsmRkT6K1I6a9yyqtbjSZi47htf0lghMg6Jzn1Cmy+FJ86x422fP/XR1tVZ2qU6eqB3z6OVXNs/L//N//4gTGP/uXf4qf/MmfNGsL4osmHuEG7vzMJbOh3zd4dvgVsBnHhtlCtNi+Qum/eIac+0/NOhC3/wLyH6WRvGo20Bzw57AMfvSjH6Hdbpu18dbW1vCv/tW/Mmu9/uzlP2OWJrf4QZKIiF5b5x0k/zXzXyIiIurDIElERBRhYLiViIhokfCZJBER0RB8JklERLSgGCSJiIgiMEgSERFFYJAkIiKKwCBJREQUYbmCpFdHNrGClRVTElmUPFPX4aGk98mibrb41LHBcZ2SQLY+0IBh9k+UVIv9RtUREdFFcS5B8lnlV/D29vBy74tvzF79VGCyU2hlXJycnOji5oHqXl+g8g5RhQPHqeCgN0pqTs2F65pSi6GV2hoSaEOaVRz219cPUDGLRER0cY0Nkn/yRRPPjs1KBL2PWe53rxMAn5p92vgBvovnDz8YLHfXVX3UF5mLODKbllkGrGQZjfIOulskRlaBzC7KaQeVwrBMz4JlmZLcRSbexJFrqgbEVbAFcnt9OelBRW1XFWFeqZvlhjNctT2hstpSPav+69cngkpT121dMtTE6KBNRERzMzZIXn0DqHyqAlxEoPyTw4f48Plq5Awc3/6WWcAR3tfB8rdw+Pu/1ckcpdw+9LPHP/nRP9P/Hc7GugpouS0JOF7EMKcHHSMlkKoAWFQ55UAWGCZZZzOOddusD7G+m4dTOegJZAcVB+m0WdUky80BeT/L1RmuHQ5+FVTbu2hIBuwWJeqG6oiIaFGNH269HMfj91aHBkodIF/+RTx21syWQdfe/Als3h2SNQblYxVe/+FX+BO99yquq6A8nIWdhusHoIINW2dsKusKP1Os7yEXy2NHp5YWNjNq374oWUmZbE+KXUWsuG/2j5JEOjR065UKqDhptTVEhl/jRewm/Yb8DDU83OsgH5zEWkMMLbSZLRIRLbzJnkkOCZSTBEhx9d9/C97zEV8pdPkGvoMv8XtjhnR9MkRaRqMRPJOMIRd6pijDoCoKdoKgnWuiWT3syTqdmn+sXxooj46QWrIzdOtnqsXdnhAJr90Cmjk/cOtiQ50aLUZCIqKlNvmLO6FA+agyWYDUJAi+/DLymaU8g/z5/xD4/v/6DX74UmWel83mCUjGVuw8U/SHQWudACjFHT/kOolkGo68wFOXl4IyCD0W1ay1GKAySbfn3CdoTBCAiYhocU0eJIUOlG8Bb74zWYDULuHam/8MP/jCrA5xdfMvwvqHX+GHZn0o/ecfvcOrXn2v+0xRhjz7h0Ejhlynl8SuPEpM5eSBp2q1jw6iOewFfZO+Zif48xA99CrDsrKnh7oM5fo1RES0AKYLkuLyGu5sjnoDddDG26s4HDXkijV8+81nePByFdfMlgGWClT5mH4e2RlOLaiY5TawY3koFSqID3kDR7K85hm8KGOpaBsPP1vskURZXsgJ+iYdSw8JpgMk+DpopeS4LRwgrzJjU0VEROduTlNltXFv+0t8++HNyLdg8cVTvH2wiif347hqNhER0evtvKfKmlOQ/AaPPvoNPHhhVqN867t4PvEwLhERXXSvSZAkIiKaHiddJiIiWlAMkkRERBEYJImIiCIMPJMkIiJaJHxxh4iIaAi+uENERLSgGCSJiIgiMEgSERFFYJAkIiKKMKcg2cajL74xywuunkVCvqQ8YWbx6Fn3UCrVx8/uQUREF8KcguQarj3/DLcPpwuUjz76Fby9HS4P8WiiyZmH8+olZBP+DCK6JLI9U2/JdFUym0hMJmZu7MDqX6/vIZcrnH5+SiIiWgpzG27dcLbhvJwuUH79Yh2fPPwAz015cgt48OHTERM4R/NKCdipKpB34bp+qclckykbidKEUS9ZxsmJTM1l1omI6EKb+99JPqs8REUmbZ5gTsp7HzWx3TN11ujZRG7cejei3TqyKylAZYTl3lmZ9XCqX1WG2gmpYNbjeBHFWA650Lq7D2zZR8irfXUzXh2lrQJyzaa/i1PEflkyUKlTWetWDhWpijso7pcZXImIpvTa/Z3kLBll1yXcud/NLHvK3XV89TKizfoBKnCQ7g+QIplWNRUc1CVRdPWkx44ZXt3pW++NcSrw2ilUM/squ1T1Jy7yqGJPz+4sdTmdtUqdm1cZq5099cTPREQ0X+fyduvGzbdgPWnMNGwa6Y1V3DCLQ8XXYZvFXjbWVSCcmgRelV3ud9JDSwXZhp+pmrrdpF9nJXeRifuBmIiIlsf8g+RxG/c+/RLXP76JDbNpLppHcM1iLxdH/mjpVLx2yywN0nXNHOzgBaEVGzl1jlabb/wQES2T+QZJHSA/x/X3tnHnstk2D6Eh1QGjhmJHsNZiZmmQrpNnmHoYtlsafChJRLRU5hckzytAakmUaypMphLIyt85ep5fSlkkUipE1syLONOQwKuyxa3Om7Ee6tmE/6asqdsL/rzEqyObNX93SURES2NOQfI8A6SRLMP1/+YDtm37pQpkau7gG68TUYHXrSFWtTtDqgVkkN+UbFHqikDB1NkFIL3Z9+IPEREtuoWeKmvwT0BGOG7i9tNVPHbWzAYiIlp25/0nIAsdJOUbd6L+JnKY6L+TJCKiZcQgSUREFIGTLhMRES0oBkkiIqIIDJJEREQRBp5JEhERLRK+uENERDQEX9whIiJaUAySREREERgkiYiIIjBIEhERRZhTkGzj0RffmGWaG6+ExEoW/gxhHkoyA4pePiuvok0iosUxpyC5hmvPP8Ptw+kCpXx369vb4fIQj45N5Qy8ehaJRDARsiqJLErBdFbnSgUb3a8goL0C9T3kcgUcnupypZ8JdGYHO5M2oy3uz2se+u41EZ2LuQ23bjjbcF5OFyi/frGOTx5+gOemPLkFPPjwKZ6Z+ml4pQTsVAuxvAvXNSUvM2dtnf8HkXeIKhw4TsTE0GchWcbJSQNnOu/zq2jTWOifFxG9Nub6THLqQHllFdfMori6+Q7uXjnC+z3ZZbdEt1vHXq4Jp9ZAOWnBskxRH/KN4EPeDE2W1Ifzyor5DV4mS+7LZLqJjPpNPyv7+nWJbDDsGLU9mncoE1vuopx2UCmEJmcO+iQZlWlPZ1PBDuPqw3qGXhV1bZKpdPvZPa/O4IL2gnsh15WwkWs2kbPVdnVdw9qMvF9D+qonqB5qgp+XmOR8MrF26Hx6om29LhNwm50nuY+nuTZV3zk23G7kcUPutWyb8t8VEZ3e3F/cmSWj7LqEO/e7mWVPubuOr15GtFk/QEVlaumxkytXVEaXV1mLfBCrD0U7hVbGVdnSiS5upoWUbYKCDDUiA1fXuWrpAO6o7ZE86BgpkzUnd1FUPegdvqwgV1jHfqcPUB+cocA0tn4Y/9qqmX19jPQzr867518YDgtA3jXt1WKmPQs7jZq6i3EUpW5gpuox90tT97e9qwKdqpdJqXN7obqQiX5eE54PaX1v3JqDZs7GVmc9hkrP+Ufdx9NcmxybkxvqHyfZ8Njjhtzrqf9dEdFZmHuQFBs334L1pDHTsGmkN1ZxwywOFV+HbRajxVWwSqqsRS3KB3W8iP3QWKK1s49iPDQkWlEBTacT6kOtXEbnMz1q+zDy4RfLm+zIwqb6cK72REn1Qbm/o2p81o4KpOE+jK0fYuDaLCTLkrXJclJ9QKs+myormVYf1i20x6Utk9wv1VI+qLfWEBvV7rif18TnUz9PteRfh/n5dtbDRtzH01ybOXbX3FBL/SKUmfWeTPPviojOxPyD5HEb9z79Etc/vokNs2kumkcT/OYdw5r5vPLaLX9hiJZ8iiXLKhvJ4Khgm+EvM1wZtb2e7QyVrSS6Q5v1g4r68Et16uxcE83qYWgordsnn4W1mOmDNq5+0KhrE90hSdX/RErlOuONvV/TGvPzmu18/fcqLPo+nuba9LHNHGxzP1dWZBh1hnsS9e+KiF6p+QZJHSA/x/X3tnHnstk2DzprCP/2HpBnP8PfILTkEzJCzHyaWskdlBtm+KuVw5ZpaOh29SEXDNWdNIKMpY6DioNasN0MpfUOufZnFh7kczfow/j6QaOuTYK5Pzro96ehh/3Gm+R+TWyCn9eZnk+Lvo+nOZc+VmWS/jBptzRCWemkov69EdGrM78geV4BUktitxhXCZu8rFGH56nsQL+4Ir/VR2QX8kGtMoDwB5FX2lL7+8/KJNvqvPihBJ+jUduHkqE4J903bNY/5NpEbq/7koZX2uv0wTeufoiBa/NUbEx0XzaJq2LuiVcqTJRJjrtf05ng53Wm5xMj7uNpzmWO3Qve8pEXgGbIAqf6d0VEZ2ZOQfI8A6TP2mnolzVa1RRs21YlhWpMfsOPeraTRNmtIVb1h7f0UGg1hprr729tpuUNjM4QWkHlf/LMKmr7IJUVFSqIrw8+eZPso9l58cNBcf0AW50+AEXTB9+IemtTP/9KhYZ3ff3XJv3MIN95eUgdo7cnsKe2dzNJCV7yQouqG9tm7/2a1vif19meb/R9Ps255Fh108ww6YpdANKbwe8gI/Tea0z874qIztJCT5V176Mmtu/HcdWsj3TcxO2nq3jsrJkNF4D8iYB9hHxUIB9XT5PhfSRaWJwqa4TreIZbQ/4ecmj58Bnw5iVzJBER0elx0uVFxkxyPngfiRbWeWeSDJJERLSwONxKRES0oBgkiYiIIgwMtxIRES2ShXom+a//2I+btfNz+cd/zCwBx/+iG7i53Sfbw+tERBfV//en/4JBUvCDf3K8V0T0ujjvIMlnkkRERBEYJJcQs0giovlYmCDJD34iIlo0zCRP5Y9Q+fT7+KFZm8wsxxAR0Xl4TYLk97H74z+G3d81q2fld38Nv/zhr+D7f2zWh1JB8TvfRiXYZ6JjRgu/9UpERK/O0r3d+g8el/A3/8Cs9Pn2X/ur+KWfHvb2kgRJmWroT7H3C2bTKfzw0+/he+2b+J1f+47ZMooEyXeB8g/g/Dmz6ZT4disRvS4u9NutL//wOf7BPzUrEfQ+Zrnfr/5SCb+oy98z+3hoYBO/86s7g+Wv3VD1098A7Y9VEP3Oj+ngo8t3vocfhDO93/0efrFT921877ffwi/9VypA/vGvq+1qX72TCoZ//dudNn7xr8uQqgTIn8YvP/99/PLPqu1qW+8xijq3ZJrd437dDMUOa4+IiObplQbJN/8t4O88UgEuIlC+/Pv/Pf7WP/5x/JxZ75f4WbOAr/A3dbA8xA/+4NAETr/s/P1/rvd4+X99o/87PRUgfzaNf/KX/1BnZ1J+/y8f4a/8bBDIVH3mCDf/wK873l3H//L8S6A/K5RhVHwXv6/b+EPcxFN8jZ+C8/0D/FV8C39Djh/IPP1zP/3Lv2HO/Yf4JfwW/jsZFh7ano9ZJBHRfLzaZ5I/8TZKdy4NDZQ6QB7/HEq3/dnVh33w/9nLq/j2XxuSNQblgzjwj/4IL/Xel3BVBeWp/e5T/O23/xZ+/b2fMhuAa+/9Bv7G2w9Rl2D1x238k7e/i+8EQfEXbqqgdwRv2DPF3/wtfP93/0gtqOD4a7+Ob/tbow2c+6fw7V/7QXdIeNr2iIjoTL36F3eGBMr+ABnlzX9nDf/HP/bM2hA/8VP4j9HG/zxmSHeUH3pHZmnQP/FUgPpza/jzz4NgJc8jf0UFtlDQDPzCr+P3q9+Fu/fTfcOm0Uade5b2iIjobM3n7dZQoPy7jycLkJoEwWMv8pmlPIP8j/494H/63/45/s9j4MpPmM1TuGatm6VBf96SDO87SP7nv49f3nsXv6ifR34Xf6f8PVzzd+lx7Re+h73vm+HR//2/wfc+9QNrlFHnFlHtSdAkIqJXbz5BUuhAqQLj5eTQADn8g//P4Mrlb9D4Q7M6xJv/yc/h3/5Hf4QXZn20P8IP/zhUZJMMnz7vDWg//PRd/PLzbST1sOf3Uf/Nb+FvlH8Dv/P9H6jyPXx7yFuq8sbrbqgN6y+YhVEGzv1H+MFf/zZ+Ua3P1B4REZ2p+QVJ8RMW/tP/ZLo3UH/u372EH4wacoWFxOUmfvP4Ev6s2RLlb2d+Gt/62W7xg9N3sPcHB/jzv+0Pa0r51m+v4+/8QfAM8Kdgvy1vp3brL//4twf+5vLaX7oJdNr4afwqgmeN38F/+TH8t1u/0z9k2n9uOe67+KW/9FMj2iMionlZgr+T9PCrv+Qh8at/KfItWPzh38Mv/o+XUP6v38abZtOZ+d3v4XLtZufNVMlAv/577+Kv/PZ38fsqqxw27EpERGeDU2WN9c/xd//bv43f/JFZjfKzm/idSZ5zTumHn34b32p/0PPnG3obgyQR0SvHILnw5I/9f0V/IUDgP3h7G79U/vWhzyaJiOjsMEjS1KKHpomILhZOumzIBz8REdEiWZggSUREtGgGhlvPy5tvvomXL/0vmBOyHuB2X3g7EdHrYqGeSf7kT/6kWSMiIjpfP/rRj/hMkoiIaBExSBIR0YX0nxWqupwGgyQREVEEPpMkIqKFxWeSY7Xx6ItvzPLrzEOpVFf/fwyvhMRKFnWzSkREs1uCILmGa88/w+3D6QPlo49+BW9vh8tDPDo2lVOpI7uygpVEaUiQGlXXTwW6RAKl8TsOqu8hlyvgcJZjxzqr67uITvEzI6Jz9do8k9xwtuG8nD5Qfv1iHZ88/ADPTXlyC3jw4VM8M/VTa1YHg1T9ABWz+Eolyzg5aWDn7L/Dves8r6+PV8oikWU+TETna2le3JkpUF5Z7Zml4+rmO7h75Qjv92SX3TK67TgcB8jt9X5w1w8qaruqCPHq6gNesi9dgixEMhIbuWYTOVttDwKAV0I2YfZNZLsZixk2LZUSfhv13mHU4efop86ZleP9/SToDN1NO+31SYXpc6g+EerYyD6H61TmtlVdR3436deNvUe959MBVq8nkA2fZFw7A/2O+JkR0VL4H/IZXU5jqd5unTWj7LqEO/e7mWVPubuOr16Obnd9Nw+nctAJVOqTHQcVB+m0WdXqOCwAefdEZX4ncGsx9QErwc3CTqMGRwWjotSVJQDUkbVzsrO/bx6o6n0DFVSRh+uqDNI2m7Soc/SRIVpk4Kp9Tk5ctXQA11QNc7rrC6g+t3fRkHO6RYm6pm7Uceo+pFrImLqTfAzN5pHMp+3Xjb1HaezrNh00cza2OusxVELnH9vOQL+H/cyI6HWyVEFSbNx8C9aTxuxDplHeWMUNsxgtibRTwYH5ZPVKBVSctNoallQfrGUkzbColUyrD9kW2uGsKSBDmfEids3OVnIXmXi3fcnuMptJWANDrFOco1LFYV0q1Ad+WR3jb41wFtfnIB+MCVtriHXqRhzntdGKZ7AZXGe4buw9kvOpe6SW/DbNPeusGxO1YzrQ028iWlav399JHrdx79Mvcf3jm9gwm+YtmXZQKchLLB4O1b0vBkOCId3hvhUkEqnIZ3peuwWV+sA2+66syNAe0Op8OsewZj63+010jmRZZVMZHBVsf7/s+JdvzvL6+kUeJ0FJnofqYC77qeBsgub4e9Rv+D2bvh0iomUKkjpAfo7r723jzmWz7TxIdqI/0A9RRSj7CdSz8Ef1/KHDhh6uG85ai6lksWiGQ7ulMe7tnGnOkdxBuSH7uci0ctgKP6Mb5gyvr8fI4ySDbSJX2FLBU55HZlDb3/GzwVnvUZ+zaoeIlsfr80xyUQKklsSuPLJKqU/8zKb+IB8QV8VU6KzIXxykA1IOeyaDgldHdoJsT5vgHJK5hV9ckTgx3hleX7/I4+TZZxzF/X0VPBuq7HSGZU91j8LOqh0ieq0sQZBcpADpszYz6vM+9AwrLLmLovr4T+khvQT2VDYWzph0AJI3JfXfHSZRlpdEzHDoil0A0hGBKWzUOaxN/awtpdrHZlreTukMLxbUUfsTZE6zX98II4+zsR6XN0iDvvr7+C+TzniPBszaTv/PjIiWxVk8k7zQX0t376Mmtu/HcdWsj3TcxO2nq3jsrJkNNDf1LFYO0p23Rz3Pg3u4hVQ1A1dlldMHRCK6KE7ztXRBgAyGXDmfZB/5xp0HL8zKBG7cehePNy+ZNZoXr5SAfZTv+RMLvY1Bkui1d97f3covOKcFUEcpUdB/tB+Ixx3k97t/MkJErycGSSIiogicBYSIiGhBMUgSERFFGBhuJSIiWiR8JklERDQEn0kSEREtKAZJIiKiCAySREREERgkiYiIIixBkGzj0RffmOUl5JWQWAnPgL9I6siuJDBu9qxoHkql+im/9DvUxpneq7PoGxG97pYgSK7h2vPPcPtw+kAp39369na4PMSjY1M5LZlaKRHMUCEzQmRPEVyWgQTQ0PXqa5aZOUIXXd9DLlfA4cj7oIKVOi7yXk3UxiT6znNm7RLR62wphls3nG04L6cPlF+/WMcnDz/Ac1Oe3AIefPgUz0z95FTAsFNoZdzOZL1uHqjuXfypk5yaC9c1JR9DK2UjEUSiZFndiwZONW/xWbQxzKtql4heK0vzTHKmQHllFdfMori6+Q7uXjnC+z3ZZbeMbjuOTGiafkt9CDfK3RkqvHoWiU7WNSJz8krdjLQnG1WZUDbRydoS2eihwshzmeHKUqi+E9BETzasssLSJH97ZMGyTJFrrjlo5vb8IdGe4dFh/ZfsztZfXK7nY5QJIoM+lmRf1ff64BBrO3x94Xs0MBwbDBdHn6ez75CRgE5SPO6+EdFra6le3Jk1o+y6hDv3u5llT7m7jq9eRrVrJgXekg9S+ejvV8dhAci7JsusxdSHde8Hv08y0pzs2M1Gg/1keBAZuDpTddXSAVx9TL9x56qg2t5FQ9qRSYaDgKbPneqc++RkH+mjnNp7SjLDvzrqoP/ihvbfwk6jpvaPoyj97UyFpfqIvMpOVaZnm00dFeQK693rU/do+L0MizpPwL/2npGATAupie4bEb3OlipIio2bb8F60phhyHSMN1ZxwywOkg9hGW5UQa1gw9aZiGRBQbhMqvrutE6WDiQttPujaf0AlXgRu2ZHK7mLTDwUcCpVHOo21fnKqj1/a59x53KQD8YYrTXEgrq+c8s5krtFFVamJb8wmMV+E/VfSFaeVNmpWe2hAt3+Tuj6dlEM36NZmGvfD429Wjv7fe1G3Dcieq0tV5A8buPep1/i+sc3sWE2zY8ZbmwEGY7K4FJbnaFArxQaqkukhmZoXrsFNHN+kNVFhgiBlnwaq7bdWgZHKgjrNrLRzzsnOVc/fe5+OhhMy8VRd9rHrin6D3XWtaEBUvTXWVhTndT3aEZDr904TbtEdPEtT5DUAfJzXH9vG3cum23nyM9wmjiSMdF6Fv4oqh9AG3rob5Aln/Yqo/GHJLulYTIYK7mDsg7CLjKtHLaGPReb8Fz99Ln7eW2VL01JsjJ1xvSQNHGi/o/Vn8F5kBgXi46qYw29duM07RLRxbccQfK8A6R+6SM8vCqb9lBtxrEePFOTIUjzeeuVCsOzOxkaVZnkXtCOtGsyLskOs6GgMuJzfbJz9QvO3TmHh/peDsOSwl4ePM8UebElVVFxfndgKHWq/o8kz367Wajc51zTBGWd+coQqb5jqE957eGg7ZW2uu0SEUVYgiC5ABmklcRuPqafR/rDpCuwC0BGXjyRYCVZpfq4Tum6BPaQ6WZ31qZ+7phKyAd/EmV5KSRoRxpJb+p4Z22m5S0e076Ngmox/AytY9S5RjLn7pxjCwfrxbHHVlI2bNuUQguxmtvJfMOi+6/unbwHI2+d6nswjoNi5ghbuh3/Phfd4PmmtOXoP0PR/UdeZfO6Qhl1Hrn2GmKd/ql2qzHUOu0SEQ13oafKuvdRE9v347hq1kc6buL201U8dtbMBiIiOm/nPVXWhQ6S8o07D16YlQncuPUuHm9eMmtERHTeGCSJiIgicNJlIiKiBcUgSUREFIFBkoiIKMLAM0kiIqJFwhd3iIiIhuCLO0RERAuKQZKIiCgCgyQREVEEBkkiIqIISxAk23j0xTdm+aLxUCrVJ/jS77BZjllWr9O1EtEiWoIguYZrzz/D7cPpA6V8d+vb2+HyEI+OTeVU6siurCB7mtnxh5FpoHIFHI6MAipQyDRdwT4THTMN/9qC2TG6JXTOuXnV10pENJ2lGG7dcLbhvJw+UH79Yh2fPPwAz015cgt48OFTPDP150XmXkxIxE2WcXJiptua1CzHTMCpuXDdcNk/83NM7RVdKxHRpJbmmeRMgfLKKq6ZRXF18x3cvXKE93uyy26ZJVvV9KTMoSwskUVofmaVEamg2KlLYKu6jvxuUqKl2q721TupLCqb6LQhQdTTmZWNXLPpz5MogbXnGEWdW7Kv7nHBXIrD2hvFgmX1FuGVVBuhFLqeVW0FqZ7qS+e61TX3ZJ5R/ervv85kJXuc7Foj77PZtxS6151+EhHNaKle3Jk1o+y6hDv3u5llT7m7jq9eztKu+uC2U2hlXJX1nOjiZlpI2cGHu6pPtZBx/bqTfAzN5pHEpF4ytIgMXN2Gq5YO4Kqddho1OIijKMeX+6cI9s9dzeybc7vIo4o9OfHQ9kZRIVkFqk4xW62dfRRbBX+oWQWgQiuYTFnOnQPy/nW7eZlzOXTNUf2KNNm1Rt9nUUG1vYuG1MsE07m9UB0R0fSWKkiKjZtvwXrSOPsh0zdWccMsTqV+gEo8CBw+HVjiFRzIJ7TXRiuewWZQnUyrQNBCe1iSU6niUKdGKmCUJ5g1f+DcFpLlBjrxZYr2Kikbth0qnexRHbufQauQQKKggv3+jtqimHPvJv1zW8ldZIJrHtevWYy7z5qDfFBvrSEWdZ+JiCa0XEHyuI17n36J6x/fxIbZdN68dsssDWrJJ7R8WDeDYCWjggX1YR8KmoFkGW4tg6OC3Ts8OcKoc0/bnlPzs7NOCUc0a1Nlok31v26/9bmbOdhmaHNlRYZK/Wse2a8Zjb3PRESvwPIESR0gP8f197Zx57LZtgCstZhZGhRbk4iSRNppIlfYQkI/j8ygFmRjfazkDsoNCVIuMq0ctsY8Uxt1bjFte5Hqe6iiqP7XHTLV51aZnT+c2y0NlcmN69csxt9nIqKztxxBcmEC5JDndjJ8qjKqcADySlsqq3KQ1slYHQeVOIr7+2g0GqrswIxQ9pA3XrOhNiaKMwPn9lDPJvQLK9O313dtqvjMM1UV2PWwa8o8AzTn3gvenJGXaoJsdUS/VLRDDDJEKnVqu2TW/k6jjb3PRERnbwmC5OJkkP3P7fwP7CTKbg2xqj+sKcWuxlBzg2eANtbj8sZmt17+BjH0wqhmbablzRdTb6Og8jb/+VsSu/IOirzxmegfMu0/txyXQX5TZXOR7Q038ExSFf8FUxXEnLz/ZxjWDvJOBYXOdauOmeHcFbsApDdNhhzdL/96HBVspW4LB8ijGNcHKdNca/99JiI6exd6qqx7HzWxfT+Oq2Z9pOMmbj9dxWNnzWw4I/UsVg7SnWd8kqG5h1tIVTNwVVYZHbaIiOi8p8q60EFSvnHnwQuzMoEbt97F481LZu1syN8Z2kf5nhdh9DYGSSKisRgkLzz5o/qC/iP5QDzuIL9fHvpskoiIuhgkiYiIIpx3kFy6LxMgIiKaFwZJIiKiCAPDrURERIuEzySJiIiG4DNJIiKiBcUgSUREFIFBkoiIKAKDJBERUYQlCJJtPPriG7N8kdWRXUkgNMnFGfBQKtX7viiciIgmtQRBcg3Xnn+G24fTB0r57ta3t8PlIR4dm8qpSADzZ57oFpnJY9HCjwqKiVCgre8hlyvgkFGSiGgmSzHcuuFsw3k5faD8+sU6Pnn4AZ6b8uQW8ODDp3hm6qfl1Fy4rim1GFqprTPO/M5YsoyTk4Y/zRUREU1taZ5JzhQor6zimlkUVzffwd0rR3i/J7vslvFtW7AsU5K7yMSbOHLVZq+ExEoWpVJCZ5g6cMokxIlQ5pnIoifx7KlXWWkp9HdApr3ulJN9Q7HqWMkYg7YTerJjySJt/UXqej5GfzLI3nZG9Sm4hnpW/de0u9C/ARARvXpL9eLOrBll1yXcud/NLHvK3XV89XKKdr1DVJtxrNtmHRVUkVdZpmRuKhjZKbQyrsrkTnRxMy2k7CBg+fXIB/X7SB/lJpuh3xxbzeybY1111ir26hZ2GjU4iKPoqu2hqbl84/ok1DW0d9GQeplQObcXqiMiev0sVZAUGzffgvWkMfOQaaQ3VnHDLEappEJZmF1FrLgfGsqMI7OZVFmmWqwfoBIvYj80zmnt7KMYr+BAoo6p3+3MlWUhuVtULUxgoG11bLmBgZjYb1yfNAf5oN5aQwwttJlMEtFrbLmC5HEb9z79Etc/vokNs2menJqfgflFBaZQwIEKKWtm1Wu3/IUhWirqDK3XQWm8UW2PMq5PREQ0aHmCpA6Qn+P6e9u4c9lsW1DWWnS4i6lIOrTea6u8bbxRbY8yrk9ERDRoOYLkEgVILZmG08xhK/Tii1faQq7pIC3DoqZ+r/smDup7OTTNmp9VyjCo1Ku6UqH7vHKgbVWfTYx/yWZcn4iIaMASBMklC5BaEmW3hljV7jzDtKsx1Nyyqgnqi0CnfgsH60U4uk4ksVt00EpJvapDHsXOA8v+tm0UkEF+U7JBOQ7+260JeeM1bFyfiIio34WeKuveR01s34/jqlkf6biJ209X8dhZMxuIiOi8nfdUWRc6SMo37jx4YVYmcOPWu3i8ecmsERHReWOQJCIiisBJl4mIiBYUgyQREVEEBkkiIqIIA88kiYiIFglf3CEiIhqCL+4QEREtKAZJIiKiCAySREREERgkiYiIIixBkGzj0RffmOWLrI7sSgLjJvOYjodSqd73RedERDSpJQiSa7j2/DPcPpw+UMp3t769HS4P8ejYVE5FApg/c0a3JJDVU1ktEhUUE6FAW99DLlfA4bl0c1nuGRFRtKUYbt1wtuG8nD5Qfv1iHZ88/ADPTXlyC3jw4VM8M/XTcmouXNeUWgyt1NYZZ35nLFnGyUkDO+c4p/LS3TMiopCleSY5U6C8soprZlFc3XwHd68c4f2e7LJbxrdtwbJMSe4iE2/iyFWbvRISK1mUSgmdLekg4KlMKhHKohJZ9CRRPfUqwyqF/g7ItFc3qwNDsepYyRiDthNZmTtSskgbuWbTn08yq47ub2dUn4JrqGfVf027ZxLNzvaeDV63odrrHKuO63Zd3Zds+Jhg+DlqOxFR11K9uDNrRtl1CXfudzPLnnJ3HV+9nKJd7xDVZhzrtllHBVXkVcYkmZv6sLdTaGVclcmd6OJmWkjZQcDy65EP6veRPsqpFibhH1vN7JtjXXXWKvbqFnYaNTiIo+iq7eX+qZTH9Umoa2jvoiH1Mil0bi9UdwbO4J4NXndQl+vcTzcv81mb42TIGRm45pgMDiAxOnI7EVHIUgVJsXHzLVhPGjMPmUZ6YxU3zGKUSspkKlLsKmLF/dBQZhyZzaTKmNRi/QCVeBH7oXFOa2cfxXgFB/LJbep3k0G9heRuUbUwgYG21bHlBgZiYr9xfdIc5IN6aw0xtNA+ZXp11vds6HX33U8/Yw1dV6WKQ52Sql8kymV0blXUdiIiY7mC5HEb9z79Etc/vokNs2menJqf4fhFfUCHPtChQsqaWfXaLX9hiJaKOkPrdVAab1Tbo4zr01Tq2W7gS4SGPId4pffM0HXNHOygTysy7GyuK1mGW8vgqGDrus4QbdR2IqKQ5QmSOkB+juvvbePOZbNtQVlr0eEupqLC0HqvrfK28Ua1Pcq4Pk1FvxBkAl9jR+VhpzfTPTN0ncok/aHTbmmYgGwld1BuyDYXmVYOW+aBZdR2IqLAcgTJJQqQWjINR2U24Q9dr7SlshsHaRnTM/V7nXoP9b0cVPLj01mlDBdKvaorFbrPKwfaVvXZxPiXbMb16bxNeM+GXndwP4O3fOQFIJMZeqUssqE2g1gbtZ2IKGwJguSSBUgtibJbQ6zqD+VJsasx1NzguZfUF+XtElO/hYP1IhxdJ5LYLTpopaRe1SGPYueBZX/bNgrIIL8pWZMcB//t1oFh0HF9Om+T3LPo69b30wydrtgFIL2pM1xrMx26z3KM/1wzajsRUdiFnirr3kdNbN+P46pZH+m4idtPV/HYWTMbiIjovJ33VFkXOkjKN+48eGFWJnDj1rt4vHnJrBER0XljkCQiIorASZeJiIgWFIMkERFRBAZJIiKiCAPPJImIiBYJX9whIiIagi/uEBERLSgGSSIioggMkkRERBEYJImIiCIsQZBs49EX35jlBeWVkFgJz/C/yDyUSvW+Lz8nIqJhliBIruHa889w+3D6QCnf3fr2drg8xKNjUzmVOrJ6tohwSSAbTM10JlTwSiQQmr2pj+nD0EmOR9X1qe8hlyvgcOyO4/pDRHTxLcVw64azDefl9IHy6xfr+OThB3huypNbwIMPn+KZqZ+WU3PhuqbUYmiltuYfRJrVwQBXP+jONzmOnjC5Ac4KRUQ03tI8k5wpUF5ZxTWzKK5uvoO7V47wfk922S3j27ZgWaYkd5GJN3HkmqoQr55FIpRxdgKpGZYther9yZIla7ORazb9uSCzUQO3cTgOkNvrra8fVNR2VREyrg+6hWn7o/bPJkybCXXc2OvyTX8/DK+us1n/OFVnJlLWovpCRHSGlurFnVkzyq5LuHO/m1n2lLvr+OrlFO16h6g241i3zXpHHYcFIO+eqIztRGecOTv8vLKCansXDVV3IhMF5/ZUnYWdRg2OCoJFOa4cPQ3y+m4eTuUg1F4dBxUH6bRZ1cb1IWzS/tSRtXPSqN9mXuYsHnddYpb7IeR8KVQz+/q4kxMXeVTh/34wri9ERGdjqYKk2Lj5FqwnjZmHTCO9sYobZjFKJWUyFyl2FbHi/pBhy6QKMGUkzXYrmVbBpoV2J9NxkA8OstYQ66mbRBJpp4IDExG8UgEVJ21m7w+M60PYhP2RId14EbumUT+T7vYjup0Z74c5337nBltIlhvw4/W4vhARnY3lCpLHbdz79Etc//gmNsymeXJqfjbkF/WB3fkA7+WVQsOHidTkzwsnlEw7qBRk6NHDYRUo7g5mnmfdB6/dApo52KbNlRUZjgVawyNvj1n6os8X4TR9ISKaxvIESR0gP8f197Zx57LZtojqWfgjgX4wbehhyzMm2Zi8wFM/RBUZbPbH6lfQB2stBqjsze38kmDajvhFoWPGvujzRZi5L0REU1qOILksATIQV8V8XuvhUH/xDCWxK4/vUir6ZDaDU/U66z7owJzDXvBnL14d2fCLNKPM0hdzvq3uWz4q3ib8F3tO0xcioiksQZBcggBpbepnYin5O8XkLooqDKT0MGACeyrTmyyLM4FP3iad4O8drc2Mij2h53lhM/chrL8/SZTlxZqC7Q9x2gUgHRGgw05xP8puDbGqOd+KjYI6Nq/T5hn7QkQ0pQs9Vda9j5rYvh/HVbM+0nETt5+u4rGzZjYQEdF5O++psi50kJRv3HnwwqxM4Matd/F485JZIyKi88YgSUREFIGTLhMRES0oBkkiIqIIDJJEREQRBp5JEhERLRK+uENERDQEX9whIiJaUAySREREERgkiYiIIjBIEhERRViCINnGoy++Mct0cXgoleqcuYOIFtoSBMk1XHv+GW4fTh8o5btb394Ol4d4dGwqZ+DVs0gkZEYKUxJZlILpmmaiAkUigc5sUItEpp/qv9az7Gd9D7lcAYeMkkS0wJZiuHXD2YbzcvpA+fWLdXzy8AM8N+XJLeDBh0/xzNRPwyslYKdaiOVduK4peaCa2lrMIHcqKkDaKbQybmdCY32te2c4Z2OyrNptgPMkE9EiW5pnkjMFyiuruGYWxdXNd3D3yhHe78kuuyW67Tr2ck04tQbKSQuWZYr6oG8EH/ReCYmVrNozoALNSpAlqowxm+hkZYmsDDNKFmkj12z6czaqbdqQDK6TrJpzlEoqow3aUifwOusJZMMRW+3faSucCXbakT5FZbJxZPTcjT59reWd7pyNE7Xt1weXpqlsXM9PafbrVKnrlqw6OCYRnkQ56lxERK/YUr24M2tG2XUJd+53M8uecncdX72MaLd+gAocpJNmfVoytIgMXJ2VuWrpAK4KNzuNmmo1jqKrtpel8SEZXKaFlB0OvhVUkca+1NUcNHM2tjrrMVRye2ZfaSsHqMy3kwkOtJNXGfGwbM7GelwF7y0VkFSEHoxJk7at6opxVA66NV67hXimf4Jk/7qrmX1z3a46uoo9fdi4cxERvTpLFSTFxs23YD1pzDRkOtIbq7hhFoeKr6vQcQqVKg51SqiCY7mMofFWgnG8iP1Q1LJ29lGMV9CNMw7yO0kdZKxkWgfZzGZ43TBt7arMV1jJXWR62jHH9UYrQwK4GU4u2LB1BqcyziClnaJtazODeOXABDUPh1X0ZKjawHVbSJYla1eLY89FRPTqLFeQPG7j3qdf4vrHN7FhNs1N80hlfzNKllWWl8GRCjgDQ4khkmVFabWjxhhjWOuLOUK31cz5AU4XGdoNtzP8uC4znNwInknGkDPPX6dq29rsBjXvUOWHGfTHyFHXPf5cRESvzvIESR0gP8f197Zx57LZNi86QxuWvUz+dqqV3EFZBxwXmVYOW0MOstZiZmlQbHREG6DbUhmYP8TbLY0Z35SRDK4Yb+JI/aYwXdsWNjP+kKvnp5E66w0bdd1nfR1ERNNYjiB5ngFSS2JXnq2l5MUY9WHvearIiyaS1ZisyVpT+ZMEUgl+HuqlglrzyYs14RdqImOCBGOVNYUDqFfaUueY4XmoaWsvGCKVF4IiMtgB+uWh0PCq4tX3UG3GsS5jzlO2rYdcWwfYGzbUKgauW92/bEK/lHSq6yAiOqUlCJLnHSB91k5DvxjTqqZg27YqKVRjkuEEzxclkDpopWRIdQsHyKvMS1eoIJGWt006w4UFBM/f5Bj4b7fKG59qvezWEOvsuwK7GkPNjXiGOZK0pRo3Q7wrdgFID2ZxQ1mqX/mYfh7Z6Yc6PNN5yWfKtmXIVf3KUBky1Orrv265Rxnk9c6nuA4iolO60FNl3fuoie37cVw16yMdN3H76SoeO2tmAxERnbfznirrQgdJ+cadBy/MygRu3HoXjzcvmTUiIjpvDJJEREQROOkyERHRgmKQJCIiisAgSUREFGHgmSQREdEi4Ys7REREQ/DFHSIiogXFIElERBSBQZKIiCgCgyQREVGEJQiSbTz64huzfEF5JSRWgtn2PZRkphG9TERE52kJguQarj3/DLcPpw+U8t2tb2+Hy0M8OjaVM/DqJWQT/qwYuiSyPdNJnYn6HnK5Ag51s5PPV9mrjqzu37AppUbVvQ5mvadE9DpaiuHWDWcbzsvpA+XXL9bxycMP8NyUJ7eABx8+xTNTPw2vlICdqgJ5F65rSh6opmx/3sOzkizj5CSYkuqUmlUTbEPqB515LudJ5tRMZAdmrSYiWmhL80xypkB5ZRXXzKK4uvkO7l45wvs92WW3RLddx16uCafWQDlpwbJMUQGtUXPQzO35Q6U9w6ZCsrZu1uLVVaAIstDQ9h6dNiTjkUmdm/58k9mSWl9BT5yRfSMzwjgcB8jt9Qam+kFFbVcVIZH9Mn0pherDvxCMvJ5wncrctqrryO+aWTFVu52MXLLx/vNJQDXHyvl0gNXrMul16CTj2hnod/89ZdAmotGW6sWdWTPKrku4c7+bWfaUu+v46mVEuzr7cpAeNvOxzJyvag/Gft7WcViQRPREZYonegLnnB0OqP0s7DRqqu04inJMeQc7eXWm0Im8Qz3Vf+QExOu7eTiVg56gfVBR15E2q9q4flVQbe+ioepOZPLj4BeCkcepXw5SLWRM3Uk+hmbzSC7Jr7NzOiPXx0k23n8+pLGv25RfQGxsddZjqITOP7adgX7339Ppp7ImotfLUgVJsXHzLVhPGjMNmY70xipumMWh4uuwzWIvG+txszhSUn1Al6ESUc3SwbWFdjj7GkeO6QQ9D36MHDUum0Ta6QZwr1RAxUmrrWHj+uUgH4z9WmuIdepGHOe10Ypn0OlauE5+4YgXsWsOtJK7yMTDv2TI+ZI6nvptxtU1hteNidoxHejpNxHR5JYrSB63ce/TL3H945vYMJvmRmVCrlns5eKoaRbH6A4briCRSKlcZ1qhoOcdqowrFIgiJNMq+yzIkKwfVIvBkGfIrP2KPE6CkjwPNS816eBsgqbXbql7mYNtjltZkeFPoBUZwWJYG3KN07dDRDS95QmSOkB+juvvbePOZbNtXnQG0zukKi/yyIsodQkAqnboUGxYPQt/dNAfgmzoYb/p6aCnOjJuqLVD+q4DVkRQnbVfI4+TYN5ErrClgqc8j8ygtr/jZ4NrMZWVF+HKMGioNKZ8U+ms2iEiGmU5guR5Bkgtid1iHJWUvDiiApSnspXNDNQGpFSgcGpltYeih/UkmEo245kAGiLDsuYzXGdX/uJ0JOhVCirwjBtqDUjfgZx0NCqoztqvyOPk2Wccxf19FTwbqux0hmX9oJ3DXvCnM14d2ewMf45yVu0QEY2wBEHyvAOkz9ppwK2pwFhNwbZtVVTQiUuUiIWySAlIDlopGysrWzhAHiq2mqpdFFUYSemhwQT2VFbXybysTf08LTXwpqoJcPImZqfOz9KaEwy1BiwV0OPqbJ1ndGGj+jXKyOPkOa28QSr3Qer9ffyXSZMoy4s0BVNnF4D0BBnxgFnbGXZPiYiGu9BTZd37qInt+3FcNesjHTdx++kqHjtrZsNk6tkE2ukGdsYNt54hGerdgsrSFnVosZ7FykG68/aoZN7u4RZS1QxclVUuaK+JaAGd91RZFzpIyjfuPHhhViZw49a7eLx5yawtKBlWtA+QPjFDvAtIf/HCUb7nTyz0NgZJIpoSgyRNTAca/QxUvtTAbFxIdZQSBf1H+4F43EF+v/snI0REk2CQJCIiinDeQXLpvkyAiIhoXhgkiYiIIgwMtxIRES0SPpMkIiIags8kiYiIFhSDJBERUQQGSSIioggMkkRERBGWIEi28eiLb8zyReOhJLOKmLXJzHLMEvNKSKxk/Ymmw8uv230gonOxBEFyDdeef4bbh9MHSvnu1re3w+UhHh2byqnUkV1ZMbNYnKH6HnK5Ag5HftKrYJBIoBTsM9Ex0/PqWSQSwYwdMkNGFqVgGqpT6ev/WXlF94GIKGwphls3nG04L6cPlF+/WMcnDz/Ac1Oe3AIefPgUz0z9edEz+kvETZZxctLAVJN5zHLMGPo7YVMtxPIuXNeUvMwKtnX2we2snOI+dO4/EdEYS/NMcqZAeWUV18yiuLr5Du5eOcL7Pdllt8ySrWoyM0dfFtaThEmW1qmTmfrXkd9Nyqd17/BhNtFpQz7EPZ2F2fqLwvX8h/LB3nOMos4tmVr3uGCOxGHtDVPHXq5pvjTdgmWZooJQIxyERl2j6VMpdJ0JHV2j+19SgVnmmPR3G3P/hgnfh8jzG1H3n4hojKV6cWfWjLLrEu7c72aWPeXuOr56OUu7MnVVCq2MqzKbE13cTAspOwhkql5laRnXrzvJx9BsHnVm9O+Q4UNk4Oo2XLV0AFfttNOowUEcRTl+YOoP/9zVzL45t4s8qtiTEw9tb4j6ASrqDN2Jo4cZd42igmp7VwVWVS+TIef2VF1U/9W+qqeuK0F4krYnMez8YsL7T0Q0xFIFSbFx8y1YTxpnP2T6xipumMWpSJCJF7EfGvezdvZRjFdwIJ/SXhuteAabQXUyrYJGC+1hmVKlikOdQqngUp5gvsiBc1tIlkPTaE3aXnwdtlkcatw1ag7yQb21hljUNWpxZDaTKmNVixO1PYmI809z/4mI+ixXkDxu496nX+L6xzexYTadN6/dMkuDWvJJLB/YzSBYychgQQWF0Id2IFmGW8vgqGD7w4WdYdNoo849VXsqsxqaZRpjr3FqMayZ6z/7tvtMev+JiIZYniCpA+TnuP7eNu5cNtsWgLUWM0uDYjoSJJF2msgVtpDQz8MyqO0Pn53fSu6g3JBhQReZVg5bY96aGXVuMVF7OrMalrV130odf42ze5Vt+ya//0RE/ZYjSC5MgPTgeaEimyTINHsDkFfaQq4ZPOer46ASR3F/H41GQ5WdobPzyxuX2VAbY+Kfb+DcHurZhH5pZfL2ktgtxlFJJdT+dXNt8jKQvHBjMr6x13gKr7JtbbL7T0Q0zBIEycXJICspG7bdLf4HexJlt4ZY1R/WlGJXY6i5wTNAG+txebuzWy9vdfb/BYK1mQY6bdgoIHhOJ0EM/tuhif4h0/5zy3EZ5DetEe0NsnYacGsxtKopc20pVGNFuCfBNYy7xlFG9V+MadvaRCZeQUqODS/rYycx2f0nIhrmQk+Vde+jJrbvx3HVrI903MTtp6t47KyZDWeknsXKQbrzZqdkau7hFlLVDFyV1TCpecV4/4mWGqfKeoWu4xluDfl7yKHlw2fAm5fMkWen/8UU+RvEkW+S0pni/Sei0+Cky6+cPN8r6D+oD8TjDvL7ZT4bmwvef6Jldt6ZJIMkEREtLA63EhERLSgGSSIioggDw61ERESLhM8kiYiIhuAzSSIiogXFIElERBSBQZKIiCgCgyQREVGEJQiSbTz64huzfFF4KMmMG2aNiIgW0xIEyTVce/4Zbh9OHygffdT/Ha0P8ejYVE6ljmxnBonwTBIzhrn6HnK5Ag5PFSW78z1G8lS/E6E+J7Kj9x9pgvMREV0wSzHcuuFsw3k5faD8+sU6Pnn4AZ6b8uQW8ODDp3hm6qfl1Fy4rikytVRqa7agkSzj5KSBiJmrzogKkHYKrYyrziUTL5/AzQPVvWmmmSIier0tzTPJmQLllVVcM4vi6uY7uHvlCO/3ZJfdMr5tS88ioUtyF5l4E0eu2uyVkFhRWVopoTNMHTiHZHGdxNPs35nSUK139u3P9vQEyNKuX5/ISpCTrE4mRZZ5EtX2yMkR48hsdiOxpYJzoyzTQ8nxK71zKkqf9DyNqi4bPp8MC0ecL6rfnfuRVf817ahKmQjaX5cJnhmqiWjxLdWLO7NmlF2XcOd+N7PsKXfX8dXLKdr1DlFtxrHemXepgiryKsuUDHFIFpdpIWWHAmOH7JsD8v6+Otvr7Oe3U83sm3ZcdYYq9uoWdho1OCoIFl213cyV2MtMNrylgpWKzr0hSR2fd1A56PbGO6xCRVRYMhSMDFxzvgwO4Mr+A+cb1W8h9yONfamrOWjmbGx11mOo5PZC+xIRLaalCpJi4+ZbsJ40Zh4yjfTGKm6YxSiVlMmapNhVxIr7oSFTydqSKstUi/UDVOJF7IfGU62dfRTjFYTiks/su2vmbfIzVLPfQDsWkuUGhsbEARLYXD94FWzY0md5phiks8k0nMqBCVQe/BhpzlOp4lDvp9oolzH0dKP6rTnI76j7oZYsOVdwfzrrRESLb7mC5HEb9z79Etc/vokNs2menJqfFfpFBaueh4oxrJnV/ol+w1rt3pxO79vM+UFMFxnW9Pcb1c5kZFi4jEbD77ObjyHXeY6aRNoxQU2yYpUz6hip9ndrGRypwKqHSfXw7qBR/R6ue3+IiJbF8gRJHSA/x/X3tnHnstm2oKy1mFkaFOuLFHpflZH5w5vd0lABeFQ7s5Bsrxg8R1WSaX/ItTPU6m9W++2grAOri0wrh60hzw9H9ZuI6KJYjiC5RAFSk+FElWWFg4tX2lKZloN0/9il2XcvGAaVF36C7G2gHQ/1bEK/BDOWfnEoNLyqePW93ueo0n6lgK3QUKu8XBN+qSYyTo/qNxHRBbEEQXLJAqSWRNmtIVb1hyyl2NUYau6w53uybxEww5srdgFIB1ldfzs2Csgg74+LYlcdpt821W+l9rFUfT6mn0d2+qCazugXi8w+qo2000QzGGpVrM20vIETOl/wTLT/fKP6TUR0MVzoqbLufdTE9v04rpr1kY6buP10FY+dNbPhFZI/kbCPkD+JeClmjrxSAlvY5zApES2k854q60IHSfnGnQcvzMoEbtx6F483L5m1V2hRgqQMkdoHSC9AsCYiGoZB8nVTz2IlVUHcqaEx2d9yvBKSQcqfOTq1Sf+khIho/hgkiYiIIpx3kFy6LxMgIiKaFwZJIiKiCAPDrURERIuEzySJiIiG4DNJIiKiBcUgSUREFIFBkoiIKAKDJBERUYQlCJJtPPriG7NM589DqVTnbB9E9FpYgiC5hmvPP8Ptw+kDpXx369vb4fIQj45N5UxUgEjI7BhZM6P/oqsja2YA6ZRE1ky6PKP6HnK5Ag4ZJYnoNbAUw60bzjacl9MHyq9frOOThx/guSlPbgEPPnyKZ6Z+anoGfwdOMKP/CDIvYyK7GKHUqblwXb/UMi3k7FME+WQZJyfh6baIiC6upXkmOVOgvLKKa2ZRXN18B3evHOH9nuyyW8a17c/gv4uyzOhf6JvDsa6CYidbS2Cruo78rvnmcK+ErM5A+zI5mQ1EZaWl0LE9Eyp7dZW5JjpZYEJPauxnsz3xV9oZNqdkhwXL8ktyM4O42Rqcv9uUZJ4J0z91nmz43GaINXzM2P5HXHdU25HbiYjOx1K9uDNrRtl1CXfudzPLnnJ3HV+9HNWuBx0jZXbi5C6KKqfsDjmq4JJqIeOeqCxLlXwMzeaRxCa/TqbbyLu6zs3LnMbhwFRBtb2Lhhwnkxjn9kydHJdCNbPvt3niIq/OuVe3sJNXQTqUyvrBe7IJj2XfZnwdtlmPJMOqyMA1587gAK6p6jWq/xHXHdX2xOckIpqPpQqSYuPmW7CeNGYfMo3yxipumMWh5AM8ljfDjBZUQoZqECW9Nlrx7uz+SKbhoIW2VNcPUIkXsZv0Ky0VYDPx8HCtg3wwdmmtIdZ33H5nXFNlgWUzrZW0XzkwwSgUvCNUUiabU8WuxlDb35kooKKifhGoS2dUYC5HzTk5uv+R1x3V9kTnJCKaj+UKksdt3Pv0S1z/+CY2zKZ5qR9UJNp0g02uiWb10B8OlODQDD7cVdgqFVSA8IOm124BzRxsc9zKig11KFo6kkTTx0VKIh08F9XPSUMBeginJpmZX9z8Ogp2MKQ6QrIMt5bBUcHW/faHeic38rqj2j7lOYmIztryBEkdID/H9fe2ceey2TY3dRxUHNRMoAmGP7tDrhK0msgVtpDQzyMznWzNWosBKqPyhxC7pTHmzRd93AhJeS6qouQ0Q63CSm6qjK6JownGMa3kDsoN/1ozrRy2xkbWrnHXHdX2ac5JRHTWliNInmuAVGTo0En3Df2Fh1wliMZR3N9Ho9FQZQdmlFGiGRyVUe2ZLFNexslOkiGZ47pBwkM9m+i+GKOHXAsqII8eavV58DxT6irzVBmdpodHJSOVNlX7kgH7NSobziIbClBjYvagEdcd1fapz0lEdMaWIEiec4BUH+ulQgXx9cFXXSRbauoXVWysq+wsZ/vDhH5JmDdQkyjLCy1mCHHFLgDpSTI/Oa6GWDVo00YBGeS7Dz519tocM9QqKikbtuqbLqkqYjXXf7ap2tgtOmip+pWVLRwgj6J59dXaTMubNqFzh5+PTiL6uqPaPv05iYjO1oWeKuveR01s34/jqlkf6biJ209X8dhZMxumUM9i5SCNEz/y6IzNPdxCqpqBq7LKV/Ux75US2ILKXhlIiOiCOu+psi50kJRv3HnwwqxM4Matd/F485JZm5wEK/so3wmSQm97lUFShi/tA6RP+AYoEV1cDJIXgvzRfwG5ZvCwD4jHHeT3VQB7BRFSB+CcvLVq/iSEiOiCYpAkIiKKcN5Bcum+TICIiGheGCSJiIgiDAy3EhERLRI+kyQiIhqCzySJiIgWFIMkERFRBAZJIiKiCAySREREEZYgSLbx6ItvzPJF4qFUqutZMegUvBISK1kzAXWfUXWvVB3ZlQnm7JxFPauuaQUrCc61STQPSxAk13Dt+We4fTh9oJTvbn17O1we4tGxqZyKfOjJzBT95RQfhPU95HIFMx/lslEBPjHNtfv3z58VJUS+GP5Mg9i0/Ton8r27idC/o0R2wj77M9LEZBLtsd8JvCT3gmjBLcVw64azDefl9IHy6xfr+OThB3huypNbwIMPn+KZqZ+WU3PhuuGyj5kn4EiWcXLSmP14WlLyxfQptDJuZyJqNw9U95gZEi2ipXkmOVOgvLKKa2ZRXN18B3evHOH9nuyyW8a3bcGyeotmhvVKwVCYKv7kyPLbfF8GJdmTDJWFhwKD40uJbnY6JNsI5i+OPl+ortRbJxMa++uJnomNZf/OecIZTeQ55Jps/WXuOVttH0gPTyGqL4oX6sfwDD66X+1h92mIyHOMut+i52cl93fc33TFeybKttQvTI1yNzOM6kc9K9cn84Oq7cFw69B71n8vSoP/DuWaOGRLNNZSvbgza0bZdQl37nczy55ydx1fvRzXbmiGfylmq6+CansXDckOZLJhPRmzhc1MHJWD7qeT124hnhk26bI6HnmVnUp2OSTbyLSQssNDk8POF5C20tiX42oOmjkbW531GCqdfeU8OSDvn0dnNGPPYWGnUYOjPuiLrto+1TQko+7fqL7UcViQKnMv1DXkevopovo16j6FjTtHVDv+zyro98nJPtJHObV3FDNB95YE3f57IKL7kSy7elJspzPcGnXP+u/FDnbyTu+/w8MqVKQe8u+QiMKWKkiKjZtvwXrSmHnINNIbq7hhFqP0zPAvpedXcwf5YOzUWkMMLbTVJ6C1mUG8cqA/5CRI+J9Nwz6aJLtIquxULdYPUIn3zspv7eyrD8gKup9zw8/nkzrVllqykmn9Yanb7qwb5jy7Zj4vK7mLzMTnmN7A/UuFQsnIviTVh3532jH/Gibty6TXMO4cEe309VtVIrlbVHc8igQw1w9oBXUPdAaossXOMMEU1zr25xci7Uz075CIwpYrSB63ce/TL3H945vYMJvmSf8Gr7MFUybJoqzN7geXd6gyvAyGfzbFsGa2S7YZpTVZZOjTbTtMn6eZ8z+odfGH82Y7x3gD909luYFxfekOF68gkUiNyNRmN8s5hv6sdBAdxVIBrYxGw78Pbl5li6mtzrDqpP2Y7ueXRNqZ5N8hEYUtT5DUAfJzXH9vG3cum21LoTvkOukQl7UW/REbGxbtZqTPozIRNxy4VGmEMth5GdmXelZPMh0MQTb0UOIZm/EcQ39WXlvlfpOTDLAYb+LIVStT9GPan18y7Q+5cqiVaHLLESQXJkD2PVNTZRJ6yLV1gL1Jh7hkaExlCFuhl0O80pbKEhykp3kEOI45z14w1CcvoGRne5lDXjYpDRvmm9S4vsj4pbl1XqnwSjLJmc4R9Lvzs/JQ38tBJXTD6Zd8wsOrsmkP1WYc67bZMGk/pv35yf6VArY41Eo0sSUIkouTQQ48U1Nlopc7ZchVfdRVJh7iSqLs1hCr2mYYbQV2NYaaW1Y1Z0nOUwQK5jx2AUhPkmEksSvvrtjqGP2GpIfDQgW5oQ/DJjWiL5JpqbuX0vcigT11HzvZlRnOTul+9PdrCqPOMZLpd+dntYWD9WL0sZbqYz6mn0d2frbqUjP6hS1VP1U/Rv38ht0LGXJtqgDOoVaiSV3oqbLufdTE9v04rpr1kY6buP10FY+dNbOBpiHP0fbWypjqZVeaO6+UwBb2z2VInWgW5z1V1oUOkvKNOw9emJUJ3Lj1Lh5vXjJrNA0Zeu783SgtJhmOtQ+QPjnrEQmiV4dBkoheOckg5YUgp9Zgtk9LhZMuE9ErZ+00IF+DyABJNB0GSSIioggMkkRERBEGnkkSEREtEr64Q0RENARf3CEiIlpQDJJEREQRGCSJiIgiMEgSERFFWIIg2cajL74xy9TDKyGx0j9D/6LwUCrVp/uScSKiBbMEQXIN155/htuH0wdK+e7Wt7fD5SEeHZvKGch0UImEP3ODLgmZHuq0YUAFE5k66cyjSR3ZoJ+hkjj7Exl911HfQy5XwCGjJBEtsaUYbt1wtuG8nD5Qfv1iHZ88/ADPTXlyC3jw4VM8M/XT0N99mWohlnfhuqbkgWpoRvlF5NRC/VVlf16zPyTL+mvQONkEES2zpXkmOVOgvLKKa2ZRXN18B3evHOH9nuyyW6LbrmMv1zRfDm3p2S50UYGgEQ4EXgnZINOULDMInmZYtCSZaE9GJ9mXjVyz6c/7J5NTBvuqoCzzCcpuOoM1xwXbJhfqrxTZNDBMK1mnaTeyr4ZX1xmj3xdVpyf5jb6Ozjn0ZMPBNaii7k8nCR95TtV2Nnw+DuES0fws1Ys7s2aUXZdw5343s+wpd9fx1cuIdusHqMBBeuSXQ8s0RDlAZZonJyd+lmmHA1EF1fauCqonOJGJcnN7qs7CTqOmWo6j6KrtnW+fVvsirzI/CcB1HBakWVUv7dZiKhBN8xxShTCvWyYzrK9CrjGFamZf9+XkxFW9rGKvHnUdAf+4Vsa/N/o6Mi2kxt4fRYZtkYFrzpfBAVy9PxHRq7dUQVJs3HwL1pPGTEOmI72xihtmcaj4OmyzOJQE0ngRuyrTFFZyV8+Y352s30E+SDmtNcTQQjsyZsWR2UyqzE+WkyoAlWGaVe2mVUujju1VSdmw7W6RJG+8iL6aa+wO2VpIlieYWWLgOHXkzj6Kk96fShWHOu1UwbjMuRCJaH6WK0get3Hv0y9x/eOb2DCb5qZ5NDKD8dottU8OthkWXFmR4UegNWk06xHDWjeeQGb97wxDJlIq55qcU/Mzt6CcZqokfY0zGHXc2PuTLKvsOYOjgm2GW2V4l4hoPpYnSOoA+Tmuv7eNO5fNtnnR2Vs46wl03+i01mIqASyaYcFuaYSyp5nUs3qy3GC4taGHNc+HvsYZjDouFv5tIIKV3EG5IdfvItPKYWu6h7JERDNbjiB5ngFSS2K3GEcllUBW/vZPP9+TF1gkWzRZnwRSlUnuBW+jyIsqZ5X1xFUxscQrFabKJIfSw5kS9KV3HuqTtmmusRuk1LHZxPg/Kxk4Tq5jS927cc95Zb+suufd42aM00REM1mCIHneAdInM7vLSzOtaso830uhGpPMMXhGlkRZXjgxw4IrdgFIbwaxbQQJwPDfCk0MCarJXRRVCEvp4dYE9pDpZpLWpn7umRp23EhyTgetlPR1CwfIQ/0OMAG5xhpiVXONKzYKqj/5Tf1bwojr6D9uBXY1hpo7/vmitZmWN6BC5+t9tklE9Cpd6Kmy7n3UxPb9OK6a9ZGOm7j9dBWPnTWzgYiIztt5T5V1oYOkfOPOgxdmZQI3br2Lx5uXzBoREZ03BkkiIqIInHSZiIhoQTFIEhERRWCQJCIiijDwTJKIiGiR8MUdIiKiIfjiDhER0YJikCQiIorAIElERBSBQZKIiCjCEgTJNh598Y1ZXiZ1ZFf8abSGC9d7KMnsInp7v1F1Z8QrIbGSVT1aRHO4fiKiCEsQJNdw7flnuH04faCU7259eztcHuLRsamcicwfKbNRnHFAqe8hlyvgMAiYZo5KrafuPEgw92fuCJex02PNbNGun4heZ0sx3LrhbMN5OX2g/PrFOj55+AGem/LkFvDgw6d4Zuqn5h2iCgeOM2wC5lNIlnFy0sDQGaBG1c2RU3Phut0yt+mqFuT6iej1tDTPJGcKlFdWcc0siqub7+DulSO835Nddsu4tr3DKpDZRTntoFLomzNRJlnWWaYUmZy57+96RtV3hjsli5KJnJv+vIxZFYn7h0J72lEloeqCjph9S/Ws+q9fH874vNB26cN0yaAFywoV2TQwTBsaQh7TF7kOyRiD60joCapf5fWrtrPh83EIl4jGW6oXd2bNKLsu4c79bmbZU+6u46uXo9r1oGOkTDCsJ0KuhoYA1Qe3nQLyrsp6TlTZR/ooF5rtf1x9wMJOo6Zy1TiKrtqv3D8lsd9OKxO0cwI300LKDgeqCqrtXTSkXiaBzu2ZujoOC9IFc1wtpgJR+LhxVAjzumUy0X2R66hm9s11uMir+7lXf4XXL8O2yMA158vgAK7en4go2lIFSbFx8y1YTxqzD5lGeWMVN8ziUPIhG8ubYT8LmxmgGkTJ+gEq8SJ2k8GYoKXiaFF91Bvj6idl2gkPdVo7+yjGw8O/DvJBvbWGGFpo624mVQAqI+iClUyrPYO68SopG7bdLZLkjRfRl4HrUPej3MBATOx3qutXKuoXG512qmBcVvfC30pEFGm5guRxG/c+/RLXP76JDbNpXuoHKu+rpDrDdXauiWb1UA/Zee2Wv1OY/oD2jauf1NB2jNYE0c4rhYYhE6khmWw0p+ZnbkEZG9BGGHUdo5zq+pNllT1ncFSwzXBr33A5EdEQyxMkdYD8HNff28ady2bb3NRxUHFQCwUJGbILhlyttSHhzmurHMY3rn5SQ9sxYmvd7GqoelYF9u5wa0MPa56PUdcxyqmuX7GSOyg3/J9dppXD1nQPZYnoNbQcQfJcA6Qiw3xOum94LjTkKkOXzRz2Qi+J1PdyaJq1sfWTMu2EP9y90hZyTQfpSTI7Gd81scQrFabKJIfS2bAMdUp/1DVN2ubAdahjs4nxf1ZyiuuXLDobOm7GOE1Er5klCJLnHCDVB3ipUEF83TbrXZLZNPWLIUmU5SWRqj+Ut7KyhYP1YihTG1cflsSuvG8ib3cm+ocEpZ0aYp12VmBXY6i5Ezxf0y8bVZDSxyWwh0z3/NYmMnFVN3C+caSvDlop6Y+6JuRRnOhBa/912Cio/uTlpahXdP3WZjp0/+V8vc82iYiGudBTZd37qInt+3FcNesjHTdx++kqHjtrZgMREZ23854q60IHSfnGnQcvzMoEbtx6F483L5k1IiI6bwySREREETjpMhER0YJikCQiIorAIElERBRh4JkkERHRIuGLO0REREPwxR0iIqIFxSBJREQUgUGSiIgoAoMkERFRhDkFyTYefTFq1n8azUOpVJ/yy8eJiOi05hQk13Dt+We4fThdoJTvXn17O1we4tGxqZyJCjYJmQUii4km1j830s8EOjM71feQyxX03JVERDQ/cxtu3XC24bycLlB+/WIdnzz8AM9NeXILePDhUzwz9VPzDlGFA8eRORDNtmWQLOPkpIFZZnaSeRQT2WW6WCKixTHXZ5JTB8orq7hmFsXVzXdw98oR3u/JLrtlXLveYRXI7KKcdlAp9M1V6NV19hbMU5jIhurH1GV1dmpKQmWpQaVXQqIna1X7rpgM0dSV6iqIBe36FepcNnLNpj+nogS4cDuRxxmh7Suqz1vVdeR3J5mRmYiI+s39xZ1ZMsquS7hzv5tZ9pS76/jq5ag2PegYKRP76gmIq6HhSxW87BSqmX2VsZ2o4iKv6vd0VBpf18q4pu4EbqaFlD3pcG4F1fYuGnKsTMqsJ3C2sNOoqXw3jqKrtpeHBbhhxwnVn1QLGTlO6vIxNJtHUE0SEdEM5h4kxcbNt2A9acw+bDrMG6u4YRaHkud6sbwZsrSwmQGqQZSsH6ASD89UbyFZbkDHp6nqVO3OPorxSYdzHeSDY601xNBCO5QURos4zmujFc9AT/Avkmm156RtEhFRv/kHyeM27n36Ja5/fBMbZtM81A8qKgFLdYZF7VwTzeqhHjb12i1/pyFmrWudR2SSgNlUGbIZ7/VKBRXEQ0GTiIimMt8gqQPk57j+3jbuXDbb5qKOg4qDmhkSDYZNgyFXay1m9hs0a11s7TwiUxJpp4lcYQsJ/Twyg9r+DkdbiYhmNL8geW4BUpFhUSetQkhYaMhVhiWbOWx1XoDxUM8m/BdipqqT7G0LuaaDtJxMD4XK0KvUq+Mks9N7vSryy0Acxf19NBoNVXaQZIQkIprZnILkOQZIFZxKhQri67ZZ75JMsKlfekmi7NYQq9pmONZGARnk9TjlNHUrsKsx1NyyCchJ7BYdtFJSv4UD5FGM64ox5Dj4b7cm+t7CHcnGelzeiu32Z2UlAf4FCBHRbBZ6qqx7HzWxfT+Oq2Z9pOMmbj9dxWNnzWx4DdWzWDlId96I9TwP7uEWUtUMXJVVMqkkomVz3lNlLXSQlG/cefDCrEzgxq138Xjzkll7/XilBOyjfM+fjehtDJJEtKQYJOkMyZceFPQXEQTicQf5/TKfTRLRUmKQJCIiinDeQfJcvkyAiIhoGTBIEhERRRgYbiUiIlokfCZJREQ0BJ9JEhERLSgGSSIioggMkkRERBEYJImIiCLMKUi28eiLb8wyERHRcphTkFzDteef4fbhdIFSvrv17e1weYhHx6ZyKnVkV1YGZ8OQLwRfyaraReT3uTubh18SiRLMnMpERPSKzW24dcPZhvNyukD59Yt1fPLwAzw35ckt4MGHT/HM1L8OnJoL1+2WTCyH1NY002cREdGs5vpMcupAeWUV18yiuLr5Du5eOcL7Pdllt0ybqfbwSkj0ZJWSySWg51M2daVSVv3XZHSqwuusJ5ANT7ysMtRgP6nrVAXthOr15M0jWbCsbtnZLSLePIJraqXNbMKcK6Ha7jTnoZRNmD6o86g0ululri04xhzXyU4nug/SbrBNvlQ9fJ5QAJ+lb0REC2TuL+7MklF2XcKd+93MsqfcXcdXL8e1qQKbFypm62QqqCKN/ZMTuDUHzZyNrc56DBU9ebOo47AA5N0TnJi6nB0OOqqd9i4aqu7ElZmVg+Mm4aG+l0Mzvg5/CmkVwOycnMw/Vx6oBueq7yGHDFw5z4nKQHFgAqsck0Ir4x+jj8u0kOrp4yhyH/Iqq21gx/Lbqmb2TVuuqqliz+/ADH0jIloscw+SYuPmW7CeNM522PSNVdwwi1EqKRu2HSqpiqmZhIP8TlLPyWgl02otjsxmeD2QxE6jOzWVX9dCuxORpZ2gcg2xnrpBlZTJxHSxUWgVUds3c0PWD1CJF7FrTmYld5GJV3AQRLtKFYc6RVQZaFn1SbaZY/aDPijWzj6K4eNGMtcthw+0ZSFZbkBPZzlL34iIFsz8g+RxG/c+/RLXP76JDbNpXpyanzl1isoIZxfDWjfO9OgOw64gkUip3Gt2nT7rvqoA29jpBGCv3YJKaWGHgmiuCbQk6ibLKovN4Khg+/0ww6D6mAj6uLG61z2qrVn6RkS0aOYbJHWA/BzX39vGnctm20VTz8IfZfSDW6NRC2WZp6ACS82pIBV6Rddai6nErmiGLbulYTI7K7mDckO2uci0ctgqef4xEWJRUT/CqLZm6RsR0aKZX5Bc9ACphz5lOFDnW6iXCrNngHFVgmzrNO30SZZVwK2kun/KIkO5KlvbC966kRdygoxRZbPhl4k68cwcEw5KXmlLZXkO0jLmOc19GGhL7Z9N+C8jzdI3IqIFM6cguQwZZBK7RQetlAwBbuEAeRQl2E0ruYuiCispPcSYwB4yZ5NJakmUaw4qqeAlG7UuL/+YYcsVuwCkN3V8tjbT8qaMv12eZape+c8O5ZgaYp26FdjVGGpu8FxwmvvQ35acJ4P8ZnCeaftGRLRYFnqqrHsfNbF9P46rZn2k4yZuP13FY2fNbCAiomV33lNlLXSQlG/cefDCrEzgxq138XjzklkjIqJlxyBJREQUgZMuExERLSgGSSIioggMkkRERBEGnkkSEREtEr64Q0RENARf3CEiIlpQDJJEREQRGCSJiIgiMEgSERFFmFOQbOPRF9+Y5QVXN3NBJhZpjkMPpVJ9gfpDRPR6mFOQXMO155/h9uF0gVK+u/Xt7XB5iEfHpnIqdWRV4AtNxRhBBaNCBTGZ6LhhZv8/F6ofiQQ6s0nV95DLFXD4KqKkTGGV8GcD0SWR7Z53an39JiJacnMbbt1wtuG8nC5Qfv1iHZ88/ADPTXlyC3jw4VM8M/WvjWQZJycNnP1sUipA2im0Mm5nUmQ3D1T3FimLJiI6P3N9Jjl1oLyyimtmUVzdfAd3rxzh/Z7sslsmatcrIbGisqVgWFUVPUmwUs/ayDWBSio03Dok0wrmEe60VUqoOpVB1YP13rZlkmF/PdEz2bAX6oM+3j+hysakH03kbLVd0l9znk4iPEmfhlzfcHFk9PyPPksF5EZZsmjpR1/2LW3r+6LqsnLNpn21k97W329zTKev4Sy1c+8muVfDzkdE9OrN/cWdWTLKrku4c7+bWfaUu+v46uWkbVZQbe+iIdmTTAyc29MBKFl29QTDTme4dUimlWkhZYcClrSFPFxXZXp2sJ7Gvuxbc9DM2djqrMdQMeeSLO6wAORd066qy+l2Lew0anBU8CpKXdmfCrlrwj4Nub5BNtbjKqhtSVCVMBem+pF3UDnoHukdVqEiKiwZ/kUGrj6/q5YO4A7tt/Q1Jxfp91Oy1IF7N8G9Gno+IqJXb+5BUmzcfAvWk8bZDpu+sYobZnE8B/lg7NJaQwwttIelJvUDVOK9s+ZbO/sqkFbQjR2SiSVhdXaRttW6WrKSaR00dH1nPZBUQaWMZNANXRfRj7CJ+jTh9enA5vrBq2DDlkxNnikGaan0qXJggpoHP0aaditVHOr9VBtldR3+1l6mr7vmIq3kLjID/ZzkXimTnI+I6IzNP0get3Hv0y9x/eOb2DCbFpXXbpmlQa1O1IlhzcSN4aLru0OLK0gkUiqvGm+yPk3DUgGpjEbDZKV5ldGmtsywaBJpxwQ171BlfRnoGKn2d2sZHKnA6g9/Dn+GqfvazPnBVxd/ODu6nxH3asLzERGdtfkGSR0gP8f197Zx57LZtsCstZhZGhQbHRnHq2fhj0T6wamhhyrHe6V9UiTbK8abODLjmcm0P+TaGWr1N6v9dlDWgdVFppXD1pDnnrqvKpP0h0m7pTHDG0iTnI+I6KzNL0guWYDUZMhPZULhD2SvtKWyIQfpsxjvi6ti4oVXKkyUSZ5pn/QLQKHhVcWr76HajGNdP19V9JBrAVuhoVbJgMMvIEXGbdPXvaB9Od8MWeDE5yMiOmNzCpJLGCC1JMpuDbGqP8wnxa7GUHPP4JmYZGwqLKZ0uwnsIRPKJJPYlfdt5C3RgS81OMM+Weo8+Zh+Htlpq6CCobyE1En2ZMi1iWYw1KpYm2l5A8ccY6OgrsR/Rtrfb+mr2hC0L42nu9nopKLPR0T0ai30VFn3Pmpi+34cV836SMdN3H66isfOmtlAZ8UrJbCF/ZmGSYmITuO8p8pa6CAp37jz4IVZmcCNW+/i8eYls0ZnQoZI7QOkT/hGKRHNH4MkLSzJIOXlIqfWwMCfaxIRzQEnXaaFZe00IF+HxwBJRK8rBkkiIqIIDJJEREQRBp5JEhERLRK+uENERDQEX9whIiJaUAySREREERgkiYiIIjBIEhERRZhTkGzj0RffmOULxishsRKebZ+IiC6KOQXJNVx7/hluH04XKOW7W9/eDpeHeHRsKifmoZTwZ7gYLAxuREQUbW7DrRvONpyX0wXKr1+s45OHH+C5KU9uAQ8+fIpnpn4yFnb2XbiuFJnYOI5iLVjnl3YTEVG0uT6TnDpQXlnFNbMorm6+g7tXjvB+T3bZLZHtWpb6Pylm3e5b15MPhzLMhMoww5M4jqvvUFlrNtHZL5GtTz3BMBERLY65v7gzS0bZdQl37nczy55ydx1fvZylTZkKKoVWxsXJyYkubqaFlB0MxY6rD6nvIYcMXL2fq5YO4JoqIiJaPnMPkmLj5luwnjSmHDYd441V3DCLU6kfoBLvnene2tlHMV7BgUTBcfX9KlUc6jTTwk6Zw7lERMts/kHyuI17n36J6x/fxIbZdJ68dsssDWq1vbH1PZJluLUMjgq2GW4tcbiViGiJzTdI6gD5Oa6/t407l822c2atxczSoNiaNba+n5XcQblhhltbOWyVGCaJiJbV/ILkAgZILZmG0+wNZl5pC7mmg7SMlY6rD/FKWWRD+42Ir0REtATmFCQXNEBqSZTdGmJVf4hUil2Nodb585Ax9dYmMvEKUokSsJkGOvvZKKD3WSYRES2XhZ4q695HTWzfj+OqWR/puInbT1fx2FkzG4iIaNmd91RZCx0k5Rt3HrwwKxO4cetdPN68ZNaIiGjZMUgSERFF4KTLREREC4pBkoiIKAKDJBERUYSBZ5JERESLhC/uEBERDcEXd4iIiBYUgyQREVEEBkkiIqIIDJJEREQR5hQk23j0xTdmeYl5JSRWshg21/LEetrwUCrVOefkeTuLnysRXUhzCpJruPb8M9w+nC5Qyne3vr0dLg/x6NhUTkwFosQKsuFPQP2h2LetnsVK4mwmSfZUWwl1zmDWkJVEFqX6kJbre8jlCjg81Unl+hKInrayjmz/tQq53k5giNhH8+s612JKgvNkEtFrYG7DrRvONpyX0wXKr1+s45OHH+C5KU9uAQ8+fIpnpn4yFjYzcVQOuhHAO6yiqf7banc/6L12S2ZRVnufjldKwE61EMu7cF1T8kA1tTUYyJJlnJw0sAyzaTm10PWowinAiOh1MNdnklMHyiuruGYWxdXNd3D3yhHe78kuuyWqXUtmP261O1mie9SEUyyqyHVotnk4rKptwSzKKtPMBpmgZIF9wa0tmWKQVfXU17GXU+3UGignLViWKSoYNoYFw/5hvqjzmv1KofP6mZxkkTZyzSZytto+PBU8I6HrkSKbgn6pXwxWVvxsVmfRwb0x27TOvr3XIBNV++uJngmrh9+LvqxZtxnKgGU9GA3wVAbcl813kvn+frtmuyG/6JzVqAIRLbe5v7gzS0bZdQl37nczy55ydx1fvYxo015HvFk1w5oe2i0H6Z01xJpH8D8fXRw141i3ZVl9uNo5QGWCJycnfhZoh59XVZArrKvqk059LqivH6ha1baJtdMZf95qe1cFW3VeVwX43J6qs7DTqKkzxlGU/pRnOvGEVEDzuqVL9Qt5lV3KLwF1HBbkEsy9qcW690aTfdPY13UOmjkbW531GCr6mkTUvbCwFmuq323888uIQMxxuiMC7hGaejRAjk+hlfGP121kWkgN9MX0W//cDRXk7VwMtcaO/4sAEb3W5h4kxcbNt2A9aUw5bDrGG6u4YRYHWJvIxJs4kojoHaoPx3XY6n/r8Rb056vXRiuewaZ8KkqgixexqzJBYSV31bEVdEdrVUDa34Gp1vXFcH1c2p7B2PM6yAepqKUCPEzf56SSUnfM7pZu0hpHZjOpsktZTqqgXQ7dm7Tqdbifcg1qX7Xk15ljO+vGiHuRTKvgqn+QOiZiPb0O/wcrh6lfUeQ3FHN8eEjY2tnv/Tn19NuQLFgF+ZqrrsFsIqLX2/yD5HEb9z79Etc/vokNs+nVkwzEPIPsZBvyrFJGXFVmJM8ozfNI/WyymYMdDNOtyHBm+PllDGvhD9Zw26KTnU5n/HnPl1PzM7KgdJPW3vvRHT5dQSKRUvnaKP330jfyXsioQOVAZYR1HFTU8Un1C4NelxECfzRAHx8h+udYQSpVQVMeVg/pExG9nuYbJHWA/BzX39vGnctm25zoDKR62M02FHlWKVmJfkYZ2gaVhbihgCCl0clK+jM4+XCWd35Uvc6GwtlKYNwbqJOcd1aSMZvFfrNmvVH0UGV3uLWhh4KnN/Je6FEB9TOoq+zfSauML4m0I+syQuCPBujjI+if01D+kHXNUcHylT7bJaJlMr8geY4BUjPPJQsm29AkqFUKKFT6tqksZi94y0NeAMmGX+JoIrfVXffkzziawXPIJHaLcVRS8hKKym3087u6eblmeNbUMfa8szJv96bk5RfzTLFeQkJlTfHM5tknTRKQTaNeqTAmk4ww8l6YEYBCFcEPTf1o9XowGhAcvxX6rcQrbYV+TsP4P59kWQX2Siriz2GI6Dz8/M///MTlrM0pSJ5zgBTmuWTTZBs+ybJkWziAJVGWF2MKtj/UZxeAdDiYOChmjrBlhgKluhh6hmXtNPRLKK1qyjy/S6Eak6zI7KP7obKVgbcnx503igRmeXlIHRPxRqbuk7zMGzxTTFURK7pnkKX2keezMmyp700Ce+pez5JJjrsXegSgqX5q5ocWrHfeTtbH1xCrmuPl51SNTfis0T93S/2iMyrzJ6LXw0JPlXXvoya278dx1ayPdNzE7aereOysmQ1ERLTsZKqsaeKS7P/azCcp37jz4IVZmcCNW+/i8eYls0ZERMuOQZKIiCjCeQfJc/k7SSIiopnJi6CVJv7ErL5KDJJERLQ8JEB++FvwXj7DrY9efaBkkCQiouUgL2hKgPzuu3h8/1188uarD5QDzySJiIgWSeeZ5BdN3MMN3PuZ4AXNb7Bf+Qp/zol3vsGNL+4QEdFrgy/uEBERLSgGSSIioggMkkRERBEYJImIiCIwSBIREUVgkCQiIorAIElERMtB/k7yi2/MipC/k3yKZ2btVWCQJCKi5fAG4D34Ddz+HQmUKkB+9Bv4dbyFa37tK8EgSUREy+FyHI8//i6s3/oNvL2tAuSb38UTZ22yOYdnxCBJRETL4/Ia7qlAufmtjVceIAWDJBERLRcJlE78lQdIwSBJREQUgUGSiIgoQs8sIOLf+LF/0yydvd/7vd8zS0RE8/HzP//zZomW1f/7p//SLI0ns1lxFhAiIqI5YJAkIiKKMFmQPG7i9kdjvtXgi6dqnyb+xKwSEREte/wYHyTlAj98Bit9Extm01A/cxPOm89wi4GSiIjEBYgfo4NkcIF3P8C9nzHbRthwPsAnDJRERHRB4sfoIHl5FZb6j/cy/IWyo3yDP36p/vPm6lz+yJOIiBbUhYgfwP8P37rQQ7aJOfwAAAAASUVORK5CYII=;" vertex="1" parent="1">
          <mxGeometry x="30" y="-4160" width="457" height="532" as="geometry" />
        </mxCell>
      </root>
    </mxGraphModel>
  </diagram>
</mxfile>
